<?xml version="1.0" encoding="UTF-8" standalone="no"?><svg xmlns="http://www.w3.org/2000/svg" xmlns:xlink="http://www.w3.org/1999/xlink" contentStyleType="text/css" height="980px" preserveAspectRatio="none" style="width:855px;height:980px;background:#FFFFFF;" version="1.1" viewBox="0 0 855 980" width="855px" zoomAndPan="magnify"><defs/><g><rect fill="none" height="27.6094" id="_title" style="stroke:none;stroke-width:1.0;" width="119" x="361.25" y="5"/><text fill="#000000" font-family="sans-serif" font-size="14" font-weight="bold" lengthAdjust="spacing" textLength="109" x="366.25" y="24.5332">Data Structures</text><!--MD5=[5a9da569731e8b565165fd1ac6874ba7]
class Vault--><g id="elem_Vault"><rect codeLine="3" fill="#F1F1F1" height="48" id="Vault" rx="2.5" ry="2.5" style="stroke:#181818;stroke-width:0.5;" width="64" x="276" y="66.1094"/><ellipse cx="291" cy="82.1094" fill="#F1F1F1" rx="11" ry="11" style="stroke:#181818;stroke-width:1.0;"/><path d="M289.1094,86.6719 Q288.8906,86.9375 288.75,87.0156 Q288.6094,87.0938 288.4219,87.0938 Q288.0313,87.0938 287.7813,86.8281 Q287.5469,86.5625 287.5469,85.9688 L287.5469,84.8125 Q287.5469,84.2031 287.7813,83.9531 Q288.0313,83.6875 288.4219,83.6875 Q288.7188,83.6875 288.9219,83.8438 Q289.125,84 289.2344,84.375 Q289.3438,84.7344 289.4531,84.875 Q289.7031,85.125 290.3125,85.3906 Q290.9219,85.6563 291.6563,85.6563 Q292.7969,85.6563 293.5156,85.125 Q293.9844,84.7969 293.9844,84.3281 Q293.9844,84.0156 293.7656,83.7344 Q293.5469,83.4531 293.0313,83.2813 Q292.7031,83.1563 291.5469,82.9375 Q290.1563,82.6719 289.4375,82.3125 Q288.7188,81.9531 288.2969,81.2969 Q287.8906,80.625 287.8906,79.8438 Q287.8906,78.625 288.9063,77.7188 Q289.9375,76.7969 291.5781,76.7969 Q292.2344,76.7969 292.7813,76.9375 Q293.3438,77.0781 293.8125,77.375 Q294.1406,77.0625 294.4688,77.0625 Q294.8438,77.0625 295.0781,77.3281 Q295.3125,77.5781 295.3125,78.1875 L295.3125,79.4688 Q295.3125,80.0781 295.0781,80.3438 Q294.8438,80.5938 294.4688,80.5938 Q294.1563,80.5938 293.9219,80.4063 Q293.7344,80.2656 293.6406,79.8438 Q293.5625,79.4219 293.4219,79.2344 Q293.1719,78.9219 292.6875,78.7188 Q292.2188,78.5 291.5781,78.5 Q290.6563,78.5 290.125,78.9219 Q289.5938,79.3438 289.5938,79.8125 Q289.5938,80.125 289.8125,80.4219 Q290.0313,80.7188 290.4531,80.8906 Q290.7344,81 292.0313,81.2656 Q293.3438,81.5156 294.0469,81.8281 Q294.75,82.125 295.2188,82.7813 Q295.6875,83.4375 295.6875,84.3438 Q295.6875,85.6094 294.7969,86.3594 Q293.6094,87.3594 291.7813,87.3594 Q291.0781,87.3594 290.4063,87.1875 Q289.75,87.0156 289.1094,86.6719 Z " fill="#000000"/><text fill="#000000" font-family="sans-serif" font-size="14" lengthAdjust="spacing" textLength="32" x="305" y="87.8379">Vault</text><line style="stroke:#181818;stroke-width:0.5;" x1="277" x2="339" y1="98.1094" y2="98.1094"/><line style="stroke:#181818;stroke-width:0.5;" x1="277" x2="339" y1="106.1094" y2="106.1094"/></g><!--MD5=[531c7a4e6a9c31950a2de3d1caaa64be]
class Locker--><g id="elem_Locker"><rect codeLine="8" fill="#F1F1F1" height="65.6094" id="Locker" rx="2.5" ry="2.5" style="stroke:#181818;stroke-width:0.5;" width="204" x="7" y="192.6094"/><ellipse cx="83.25" cy="208.6094" fill="#F1F1F1" rx="11" ry="11" style="stroke:#181818;stroke-width:1.0;"/><path d="M81.3594,213.1719 Q81.1406,213.4375 81,213.5156 Q80.8594,213.5938 80.6719,213.5938 Q80.2813,213.5938 80.0313,213.3281 Q79.7969,213.0625 79.7969,212.4688 L79.7969,211.3125 Q79.7969,210.7031 80.0313,210.4531 Q80.2813,210.1875 80.6719,210.1875 Q80.9688,210.1875 81.1719,210.3438 Q81.375,210.5 81.4844,210.875 Q81.5938,211.2344 81.7031,211.375 Q81.9531,211.625 82.5625,211.8906 Q83.1719,212.1563 83.9063,212.1563 Q85.0469,212.1563 85.7656,211.625 Q86.2344,211.2969 86.2344,210.8281 Q86.2344,210.5156 86.0156,210.2344 Q85.7969,209.9531 85.2813,209.7813 Q84.9531,209.6563 83.7969,209.4375 Q82.4063,209.1719 81.6875,208.8125 Q80.9688,208.4531 80.5469,207.7969 Q80.1406,207.125 80.1406,206.3438 Q80.1406,205.125 81.1563,204.2188 Q82.1875,203.2969 83.8281,203.2969 Q84.4844,203.2969 85.0313,203.4375 Q85.5938,203.5781 86.0625,203.875 Q86.3906,203.5625 86.7188,203.5625 Q87.0938,203.5625 87.3281,203.8281 Q87.5625,204.0781 87.5625,204.6875 L87.5625,205.9688 Q87.5625,206.5781 87.3281,206.8438 Q87.0938,207.0938 86.7188,207.0938 Q86.4063,207.0938 86.1719,206.9063 Q85.9844,206.7656 85.8906,206.3438 Q85.8125,205.9219 85.6719,205.7344 Q85.4219,205.4219 84.9375,205.2188 Q84.4688,205 83.8281,205 Q82.9063,205 82.375,205.4219 Q81.8438,205.8438 81.8438,206.3125 Q81.8438,206.625 82.0625,206.9219 Q82.2813,207.2188 82.7031,207.3906 Q82.9844,207.5 84.2813,207.7656 Q85.5938,208.0156 86.2969,208.3281 Q87,208.625 87.4688,209.2813 Q87.9375,209.9375 87.9375,210.8438 Q87.9375,212.1094 87.0469,212.8594 Q85.8594,213.8594 84.0313,213.8594 Q83.3281,213.8594 82.6563,213.6875 Q82,213.5156 81.3594,213.1719 Z " fill="#000000"/><text fill="#000000" font-family="sans-serif" font-size="14" lengthAdjust="spacing" textLength="43" x="103.75" y="214.3379">Locker</text><line style="stroke:#181818;stroke-width:0.5;" x1="8" x2="210" y1="224.6094" y2="224.6094"/><text fill="#000000" font-family="sans-serif" font-size="14" lengthAdjust="spacing" textLength="192" x="13" y="243.1426">keys: Map&lt;access_key, Lock&gt;</text><line style="stroke:#181818;stroke-width:0.5;" x1="8" x2="210" y1="250.2188" y2="250.2188"/></g><path d="M246,199.1094 L246,216.4609 L205,237.4141 L246,224.4609 L246,241.8125 A0,0 0 0 0 246,241.8125 L454,241.8125 A0,0 0 0 0 454,241.8125 L454,209.1094 L444,199.1094 L246,199.1094 A0,0 0 0 0 246,199.1094 " fill="#FEFFDD" style="stroke:#181818;stroke-width:0.5;"/><path d="M444,199.1094 L444,209.1094 L454,209.1094 L444,199.1094 " fill="#FEFFDD" style="stroke:#181818;stroke-width:0.5;"/><text fill="#000000" font-family="sans-serif" font-size="13" lengthAdjust="spacing" textLength="139" x="252" y="217.6045">Accesskey is the profile</text><text fill="#000000" font-family="sans-serif" font-size="13" lengthAdjust="spacing" textLength="187" x="252" y="233.9561">access key provided by the user</text><!--MD5=[e5a0a0053dbf1ca71b849402e0860357]
class CipherKey--><g id="elem_CipherKey"><rect codeLine="16" fill="#F1F1F1" height="83.2188" id="CipherKey" rx="2.5" ry="2.5" style="stroke:#181818;stroke-width:0.5;" width="109" x="375.5" y="48.6094"/><ellipse cx="390.5" cy="64.6094" fill="#F1F1F1" rx="11" ry="11" style="stroke:#181818;stroke-width:1.0;"/><path d="M388.6094,69.1719 Q388.3906,69.4375 388.25,69.5156 Q388.1094,69.5938 387.9219,69.5938 Q387.5313,69.5938 387.2813,69.3281 Q387.0469,69.0625 387.0469,68.4688 L387.0469,67.3125 Q387.0469,66.7031 387.2813,66.4531 Q387.5313,66.1875 387.9219,66.1875 Q388.2188,66.1875 388.4219,66.3438 Q388.625,66.5 388.7344,66.875 Q388.8438,67.2344 388.9531,67.375 Q389.2031,67.625 389.8125,67.8906 Q390.4219,68.1563 391.1563,68.1563 Q392.2969,68.1563 393.0156,67.625 Q393.4844,67.2969 393.4844,66.8281 Q393.4844,66.5156 393.2656,66.2344 Q393.0469,65.9531 392.5313,65.7813 Q392.2031,65.6563 391.0469,65.4375 Q389.6563,65.1719 388.9375,64.8125 Q388.2188,64.4531 387.7969,63.7969 Q387.3906,63.125 387.3906,62.3438 Q387.3906,61.125 388.4063,60.2188 Q389.4375,59.2969 391.0781,59.2969 Q391.7344,59.2969 392.2813,59.4375 Q392.8438,59.5781 393.3125,59.875 Q393.6406,59.5625 393.9688,59.5625 Q394.3438,59.5625 394.5781,59.8281 Q394.8125,60.0781 394.8125,60.6875 L394.8125,61.9688 Q394.8125,62.5781 394.5781,62.8438 Q394.3438,63.0938 393.9688,63.0938 Q393.6563,63.0938 393.4219,62.9063 Q393.2344,62.7656 393.1406,62.3438 Q393.0625,61.9219 392.9219,61.7344 Q392.6719,61.4219 392.1875,61.2188 Q391.7188,61 391.0781,61 Q390.1563,61 389.625,61.4219 Q389.0938,61.8438 389.0938,62.3125 Q389.0938,62.625 389.3125,62.9219 Q389.5313,63.2188 389.9531,63.3906 Q390.2344,63.5 391.5313,63.7656 Q392.8438,64.0156 393.5469,64.3281 Q394.25,64.625 394.7188,65.2813 Q395.1875,65.9375 395.1875,66.8438 Q395.1875,68.1094 394.2969,68.8594 Q393.1094,69.8594 391.2813,69.8594 Q390.5781,69.8594 389.9063,69.6875 Q389.25,69.5156 388.6094,69.1719 Z " fill="#000000"/><text fill="#000000" font-family="sans-serif" font-size="14" lengthAdjust="spacing" textLength="66" x="404.5" y="70.3379">CipherKey</text><rect fill="#FFFFFF" height="17.0938" style="stroke:#181818;stroke-width:1.0;stroke-dasharray:2.0,2.0;" width="9" x="478.5" y="45.6094"/><text fill="#000000" font-family="sans-serif" font-size="12" font-style="italic" lengthAdjust="spacing" textLength="7" x="479.5" y="59.0664">T</text><line style="stroke:#181818;stroke-width:0.5;" x1="376.5" x2="483.5" y1="80.6094" y2="80.6094"/><text fill="#000000" font-family="sans-serif" font-size="14" lengthAdjust="spacing" textLength="86" x="381.5" y="99.1426">nonce: byte[],</text><text fill="#000000" font-family="sans-serif" font-size="14" lengthAdjust="spacing" textLength="59" x="381.5" y="116.752">T: Target</text><line style="stroke:#181818;stroke-width:0.5;" x1="376.5" x2="483.5" y1="123.8281" y2="123.8281"/></g><!--MD5=[05bef9715505055a435a5b60deea392b]
class Lock--><g id="elem_Lock"><rect codeLine="21" fill="#F1F1F1" height="118.4375" id="Lock" rx="2.5" ry="2.5" style="stroke:#181818;stroke-width:0.5;" width="211" x="106.5" y="319.6094"/><ellipse cx="192.75" cy="335.6094" fill="#F1F1F1" rx="11" ry="11" style="stroke:#181818;stroke-width:1.0;"/><path d="M190.8594,340.1719 Q190.6406,340.4375 190.5,340.5156 Q190.3594,340.5938 190.1719,340.5938 Q189.7813,340.5938 189.5313,340.3281 Q189.2969,340.0625 189.2969,339.4688 L189.2969,338.3125 Q189.2969,337.7031 189.5313,337.4531 Q189.7813,337.1875 190.1719,337.1875 Q190.4688,337.1875 190.6719,337.3438 Q190.875,337.5 190.9844,337.875 Q191.0938,338.2344 191.2031,338.375 Q191.4531,338.625 192.0625,338.8906 Q192.6719,339.1563 193.4063,339.1563 Q194.5469,339.1563 195.2656,338.625 Q195.7344,338.2969 195.7344,337.8281 Q195.7344,337.5156 195.5156,337.2344 Q195.2969,336.9531 194.7813,336.7813 Q194.4531,336.6563 193.2969,336.4375 Q191.9063,336.1719 191.1875,335.8125 Q190.4688,335.4531 190.0469,334.7969 Q189.6406,334.125 189.6406,333.3438 Q189.6406,332.125 190.6563,331.2188 Q191.6875,330.2969 193.3281,330.2969 Q193.9844,330.2969 194.5313,330.4375 Q195.0938,330.5781 195.5625,330.875 Q195.8906,330.5625 196.2188,330.5625 Q196.5938,330.5625 196.8281,330.8281 Q197.0625,331.0781 197.0625,331.6875 L197.0625,332.9688 Q197.0625,333.5781 196.8281,333.8438 Q196.5938,334.0938 196.2188,334.0938 Q195.9063,334.0938 195.6719,333.9063 Q195.4844,333.7656 195.3906,333.3438 Q195.3125,332.9219 195.1719,332.7344 Q194.9219,332.4219 194.4375,332.2188 Q193.9688,332 193.3281,332 Q192.4063,332 191.875,332.4219 Q191.3438,332.8438 191.3438,333.3125 Q191.3438,333.625 191.5625,333.9219 Q191.7813,334.2188 192.2031,334.3906 Q192.4844,334.5 193.7813,334.7656 Q195.0938,335.0156 195.7969,335.3281 Q196.5,335.625 196.9688,336.2813 Q197.4375,336.9375 197.4375,337.8438 Q197.4375,339.1094 196.5469,339.8594 Q195.3594,340.8594 193.5313,340.8594 Q192.8281,340.8594 192.1563,340.6875 Q191.5,340.5156 190.8594,340.1719 Z " fill="#000000"/><text fill="#000000" font-family="sans-serif" font-size="14" lengthAdjust="spacing" textLength="30" x="213.25" y="341.3379">Lock</text><line style="stroke:#181818;stroke-width:0.5;" x1="107.5" x2="316.5" y1="351.6094" y2="351.6094"/><text fill="#000000" font-family="sans-serif" font-size="14" lengthAdjust="spacing" textLength="117" x="112.5" y="370.1426">access_key: string</text><text fill="#000000" font-family="sans-serif" font-size="14" lengthAdjust="spacing" textLength="90" x="112.5" y="387.752">is_active: bool</text><text fill="#000000" font-family="sans-serif" font-size="14" lengthAdjust="spacing" textLength="199" x="112.5" y="405.3613">profile_key: CipherKey&lt;Profile&gt;</text><text fill="#000000" font-family="sans-serif" font-size="14" lengthAdjust="spacing" textLength="143" x="112.5" y="422.9707">last_access: DateTime</text><line style="stroke:#181818;stroke-width:0.5;" x1="107.5" x2="316.5" y1="430.0469" y2="430.0469"/></g><!--MD5=[7b57f7066b803747d2119f99dd1555d4]
class Profile--><g id="elem_Profile"><rect codeLine="28" fill="#F1F1F1" height="118.4375" id="Profile" rx="2.5" ry="2.5" style="stroke:#181818;stroke-width:0.5;" width="312" x="214" y="515.6094"/><ellipse cx="345.75" cy="531.6094" fill="#F1F1F1" rx="11" ry="11" style="stroke:#181818;stroke-width:1.0;"/><path d="M343.8594,536.1719 Q343.6406,536.4375 343.5,536.5156 Q343.3594,536.5938 343.1719,536.5938 Q342.7813,536.5938 342.5313,536.3281 Q342.2969,536.0625 342.2969,535.4688 L342.2969,534.3125 Q342.2969,533.7031 342.5313,533.4531 Q342.7813,533.1875 343.1719,533.1875 Q343.4688,533.1875 343.6719,533.3438 Q343.875,533.5 343.9844,533.875 Q344.0938,534.2344 344.2031,534.375 Q344.4531,534.625 345.0625,534.8906 Q345.6719,535.1563 346.4063,535.1563 Q347.5469,535.1563 348.2656,534.625 Q348.7344,534.2969 348.7344,533.8281 Q348.7344,533.5156 348.5156,533.2344 Q348.2969,532.9531 347.7813,532.7813 Q347.4531,532.6563 346.2969,532.4375 Q344.9063,532.1719 344.1875,531.8125 Q343.4688,531.4531 343.0469,530.7969 Q342.6406,530.125 342.6406,529.3438 Q342.6406,528.125 343.6563,527.2188 Q344.6875,526.2969 346.3281,526.2969 Q346.9844,526.2969 347.5313,526.4375 Q348.0938,526.5781 348.5625,526.875 Q348.8906,526.5625 349.2188,526.5625 Q349.5938,526.5625 349.8281,526.8281 Q350.0625,527.0781 350.0625,527.6875 L350.0625,528.9688 Q350.0625,529.5781 349.8281,529.8438 Q349.5938,530.0938 349.2188,530.0938 Q348.9063,530.0938 348.6719,529.9063 Q348.4844,529.7656 348.3906,529.3438 Q348.3125,528.9219 348.1719,528.7344 Q347.9219,528.4219 347.4375,528.2188 Q346.9688,528 346.3281,528 Q345.4063,528 344.875,528.4219 Q344.3438,528.8438 344.3438,529.3125 Q344.3438,529.625 344.5625,529.9219 Q344.7813,530.2188 345.2031,530.3906 Q345.4844,530.5 346.7813,530.7656 Q348.0938,531.0156 348.7969,531.3281 Q349.5,531.625 349.9688,532.2813 Q350.4375,532.9375 350.4375,533.8438 Q350.4375,535.1094 349.5469,535.8594 Q348.3594,536.8594 346.5313,536.8594 Q345.8281,536.8594 345.1563,536.6875 Q344.5,536.5156 343.8594,536.1719 Z " fill="#000000"/><text fill="#000000" font-family="sans-serif" font-size="14" lengthAdjust="spacing" textLength="40" x="366.25" y="537.3379">Profile</text><line style="stroke:#181818;stroke-width:0.5;" x1="215" x2="525" y1="547.6094" y2="547.6094"/><text fill="#000000" font-family="sans-serif" font-size="14" lengthAdjust="spacing" textLength="117" x="220" y="566.1426">access_key: string</text><text fill="#000000" font-family="sans-serif" font-size="14" lengthAdjust="spacing" textLength="78" x="220" y="583.752">name: string</text><text fill="#000000" font-family="sans-serif" font-size="14" lengthAdjust="spacing" textLength="300" x="220" y="601.3613">scopes: Map&lt;access_key, CipherKey&lt;Scope&gt;&gt;</text><text fill="#000000" font-family="sans-serif" font-size="14" lengthAdjust="spacing" textLength="91" x="220" y="618.9707">is_admin: bool</text><line style="stroke:#181818;stroke-width:0.5;" x1="215" x2="525" y1="626.0469" y2="626.0469"/></g><path d="M561.5,556.6094 L561.5,565.7852 L311,613.2422 L561.5,573.7852 L561.5,582.9609 A0,0 0 0 0 561.5,582.9609 L848.5,582.9609 A0,0 0 0 0 848.5,582.9609 L848.5,566.6094 L838.5,556.6094 L561.5,556.6094 A0,0 0 0 0 561.5,556.6094 " fill="#FEFFDD" style="stroke:#181818;stroke-width:0.5;"/><path d="M838.5,556.6094 L838.5,566.6094 L848.5,566.6094 L838.5,556.6094 " fill="#FEFFDD" style="stroke:#181818;stroke-width:0.5;"/><text fill="#000000" font-family="sans-serif" font-size="13" lengthAdjust="spacing" textLength="266" x="567.5" y="575.1045">When true signals as the administrative profile</text><!--MD5=[bece8b4c4229b3549b4a8159d27930ed]
class Scope--><g id="elem_Scope"><rect codeLine="38" fill="#F1F1F1" height="100.8281" id="Scope" rx="2.5" ry="2.5" style="stroke:#181818;stroke-width:0.5;" width="314" x="213" y="711.6094"/><ellipse cx="345.75" cy="727.6094" fill="#F1F1F1" rx="11" ry="11" style="stroke:#181818;stroke-width:1.0;"/><path d="M343.8594,732.1719 Q343.6406,732.4375 343.5,732.5156 Q343.3594,732.5938 343.1719,732.5938 Q342.7813,732.5938 342.5313,732.3281 Q342.2969,732.0625 342.2969,731.4688 L342.2969,730.3125 Q342.2969,729.7031 342.5313,729.4531 Q342.7813,729.1875 343.1719,729.1875 Q343.4688,729.1875 343.6719,729.3438 Q343.875,729.5 343.9844,729.875 Q344.0938,730.2344 344.2031,730.375 Q344.4531,730.625 345.0625,730.8906 Q345.6719,731.1563 346.4063,731.1563 Q347.5469,731.1563 348.2656,730.625 Q348.7344,730.2969 348.7344,729.8281 Q348.7344,729.5156 348.5156,729.2344 Q348.2969,728.9531 347.7813,728.7813 Q347.4531,728.6563 346.2969,728.4375 Q344.9063,728.1719 344.1875,727.8125 Q343.4688,727.4531 343.0469,726.7969 Q342.6406,726.125 342.6406,725.3438 Q342.6406,724.125 343.6563,723.2188 Q344.6875,722.2969 346.3281,722.2969 Q346.9844,722.2969 347.5313,722.4375 Q348.0938,722.5781 348.5625,722.875 Q348.8906,722.5625 349.2188,722.5625 Q349.5938,722.5625 349.8281,722.8281 Q350.0625,723.0781 350.0625,723.6875 L350.0625,724.9688 Q350.0625,725.5781 349.8281,725.8438 Q349.5938,726.0938 349.2188,726.0938 Q348.9063,726.0938 348.6719,725.9063 Q348.4844,725.7656 348.3906,725.3438 Q348.3125,724.9219 348.1719,724.7344 Q347.9219,724.4219 347.4375,724.2188 Q346.9688,724 346.3281,724 Q345.4063,724 344.875,724.4219 Q344.3438,724.8438 344.3438,725.3125 Q344.3438,725.625 344.5625,725.9219 Q344.7813,726.2188 345.2031,726.3906 Q345.4844,726.5 346.7813,726.7656 Q348.0938,727.0156 348.7969,727.3281 Q349.5,727.625 349.9688,728.2813 Q350.4375,728.9375 350.4375,729.8438 Q350.4375,731.1094 349.5469,731.8594 Q348.3594,732.8594 346.5313,732.8594 Q345.8281,732.8594 345.1563,732.6875 Q344.5,732.5156 343.8594,732.1719 Z " fill="#000000"/><text fill="#000000" font-family="sans-serif" font-size="14" lengthAdjust="spacing" textLength="40" x="366.25" y="733.3379">Scope</text><line style="stroke:#181818;stroke-width:0.5;" x1="214" x2="526" y1="743.6094" y2="743.6094"/><text fill="#000000" font-family="sans-serif" font-size="14" lengthAdjust="spacing" textLength="117" x="219" y="762.1426">access_key: string</text><text fill="#000000" font-family="sans-serif" font-size="14" lengthAdjust="spacing" textLength="78" x="219" y="779.752">name: string</text><text fill="#000000" font-family="sans-serif" font-size="14" lengthAdjust="spacing" textLength="302" x="219" y="797.3613">secrets: Map&lt;access_key, CipherKey&lt;Secret&gt;&gt;</text><line style="stroke:#181818;stroke-width:0.5;" x1="214" x2="526" y1="804.4375" y2="804.4375"/></g><path d="M562,735.6094 L562,752.9609 L521,791.6328 L562,760.9609 L562,778.3125 A0,0 0 0 0 562,778.3125 L762,778.3125 A0,0 0 0 0 762,778.3125 L762,745.6094 L752,735.6094 L562,735.6094 A0,0 0 0 0 562,735.6094 " fill="#FEFFDD" style="stroke:#181818;stroke-width:0.5;"/><path d="M752,735.6094 L752,745.6094 L762,745.6094 L752,735.6094 " fill="#FEFFDD" style="stroke:#181818;stroke-width:0.5;"/><text fill="#000000" font-family="sans-serif" font-size="13" lengthAdjust="spacing" textLength="172" x="568" y="754.1045">The string mapping will match</text><text fill="#000000" font-family="sans-serif" font-size="13" lengthAdjust="spacing" textLength="179" x="568" y="770.4561">the accesskey on every Secret</text><!--MD5=[5a5a8b3a661705821451d8f0afdb3b5f]
class Secret--><g id="elem_Secret"><rect codeLine="48" fill="#F1F1F1" height="83.2188" id="Secret" rx="2.5" ry="2.5" style="stroke:#181818;stroke-width:0.5;" width="129" x="305.5" y="890.6094"/><ellipse cx="345.7" cy="906.6094" fill="#F1F1F1" rx="11" ry="11" style="stroke:#181818;stroke-width:1.0;"/><path d="M343.8094,911.1719 Q343.5906,911.4375 343.45,911.5156 Q343.3094,911.5938 343.1219,911.5938 Q342.7313,911.5938 342.4813,911.3281 Q342.2469,911.0625 342.2469,910.4688 L342.2469,909.3125 Q342.2469,908.7031 342.4813,908.4531 Q342.7313,908.1875 343.1219,908.1875 Q343.4188,908.1875 343.6219,908.3438 Q343.825,908.5 343.9344,908.875 Q344.0438,909.2344 344.1531,909.375 Q344.4031,909.625 345.0125,909.8906 Q345.6219,910.1563 346.3563,910.1563 Q347.4969,910.1563 348.2156,909.625 Q348.6844,909.2969 348.6844,908.8281 Q348.6844,908.5156 348.4656,908.2344 Q348.2469,907.9531 347.7313,907.7813 Q347.4031,907.6563 346.2469,907.4375 Q344.8563,907.1719 344.1375,906.8125 Q343.4188,906.4531 342.9969,905.7969 Q342.5906,905.125 342.5906,904.3438 Q342.5906,903.125 343.6063,902.2188 Q344.6375,901.2969 346.2781,901.2969 Q346.9344,901.2969 347.4813,901.4375 Q348.0438,901.5781 348.5125,901.875 Q348.8406,901.5625 349.1688,901.5625 Q349.5438,901.5625 349.7781,901.8281 Q350.0125,902.0781 350.0125,902.6875 L350.0125,903.9688 Q350.0125,904.5781 349.7781,904.8438 Q349.5438,905.0938 349.1688,905.0938 Q348.8563,905.0938 348.6219,904.9063 Q348.4344,904.7656 348.3406,904.3438 Q348.2625,903.9219 348.1219,903.7344 Q347.8719,903.4219 347.3875,903.2188 Q346.9188,903 346.2781,903 Q345.3563,903 344.825,903.4219 Q344.2938,903.8438 344.2938,904.3125 Q344.2938,904.625 344.5125,904.9219 Q344.7313,905.2188 345.1531,905.3906 Q345.4344,905.5 346.7313,905.7656 Q348.0438,906.0156 348.7469,906.3281 Q349.45,906.625 349.9188,907.2813 Q350.3875,907.9375 350.3875,908.8438 Q350.3875,910.1094 349.4969,910.8594 Q348.3094,911.8594 346.4813,911.8594 Q345.7781,911.8594 345.1063,911.6875 Q344.45,911.5156 343.8094,911.1719 Z " fill="#000000"/><text fill="#000000" font-family="sans-serif" font-size="14" lengthAdjust="spacing" textLength="41" x="365.3" y="912.3379">Secret</text><line style="stroke:#181818;stroke-width:0.5;" x1="306.5" x2="433.5" y1="922.6094" y2="922.6094"/><text fill="#000000" font-family="sans-serif" font-size="14" lengthAdjust="spacing" textLength="117" x="311.5" y="941.1426">access_key: string</text><text fill="#000000" font-family="sans-serif" font-size="14" lengthAdjust="spacing" textLength="71" x="311.5" y="958.752">data: string</text><line style="stroke:#181818;stroke-width:0.5;" x1="306.5" x2="433.5" y1="965.8281" y2="965.8281"/></g><path d="M470,914.1094 L470,923.2852 L382.5,953.0234 L470,931.2852 L470,940.4609 A0,0 0 0 0 470,940.4609 L682,940.4609 A0,0 0 0 0 682,940.4609 L682,924.1094 L672,914.1094 L470,914.1094 A0,0 0 0 0 470,914.1094 " fill="#FEFFDD" style="stroke:#181818;stroke-width:0.5;"/><path d="M672,914.1094 L672,924.1094 L682,924.1094 L672,914.1094 " fill="#FEFFDD" style="stroke:#181818;stroke-width:0.5;"/><text fill="#000000" font-family="sans-serif" font-size="13" lengthAdjust="spacing" textLength="191" x="476" y="932.6045">JSON representation of an object</text><!--MD5=[c07594c2149d6219620afe781d0c1f7c]
reverse link Vault to Profile--><g id="link_Vault_Profile"><path codeLine="57" d="M344.96,122.3194 C349.27,125.5694 353.67,128.7394 358,131.6094 C405.87,163.3894 441.31,144.0294 472,192.6094 C541.61,302.8194 542.73,368.7394 485,485.6094 C479.6,496.5394 472.12,506.4894 463.54,515.4394 " fill="none" id="Vault-backto-Profile" style="stroke:#181818;stroke-width:1.0;"/><polygon fill="#181818" points="334.53,114.1494,336.7859,120.9985,343.9759,121.5504,341.72,114.7013,334.53,114.1494" style="stroke:#181818;stroke-width:1.0;"/><text fill="#000000" font-family="sans-serif" font-size="13" lengthAdjust="spacing" textLength="7" x="333.1436" y="135.4971">1</text><text fill="#000000" font-family="sans-serif" font-size="13" lengthAdjust="spacing" textLength="5" x="469.6355" y="504.7429">*</text></g><!--MD5=[b1a59bf72a11ff5432062ddc3e0e567f]
reverse link Vault to Locker--><g id="link_Vault_Locker"><path codeLine="58" d="M264.44,120.3294 C232.72,141.6094 189.75,170.4394 157.03,192.3894 " fill="none" id="Vault-backto-Locker" style="stroke:#181818;stroke-width:1.0;"/><polygon fill="#181818" points="275.58,112.8594,268.3689,112.8791,265.6137,119.5431,272.8248,119.5234,275.58,112.8594" style="stroke:#181818;stroke-width:1.0;"/></g><!--MD5=[55da8371ce71cdf14815ccdaec301849]
reverse link Locker to Lock--><g id="link_Locker_Lock"><path codeLine="59" d="M138.24,269.4794 C148.83,284.9994 160.97,302.7994 172.31,319.4194 " fill="none" id="Locker-backto-Lock" style="stroke:#181818;stroke-width:1.0;"/><polygon fill="#181818" points="130.84,258.6294,130.9169,265.8401,137.6025,268.5424,137.5256,261.3317,130.84,258.6294" style="stroke:#181818;stroke-width:1.0;"/><text fill="#000000" font-family="sans-serif" font-size="13" lengthAdjust="spacing" textLength="7" x="127.2214" y="279.756">1</text><text fill="#000000" font-family="sans-serif" font-size="13" lengthAdjust="spacing" textLength="5" x="162.1681" y="308.7205">*</text></g><!--MD5=[d0569ef71ec4469639ad9f159adec373]
reverse link Profile to Scope--><g id="link_Profile_Scope"><path codeLine="60" d="M370,646.9694 C370,668.5394 370,691.7494 370,711.5594 " fill="none" id="Profile-backto-Scope" style="stroke:#181818;stroke-width:1.0;"/><polygon fill="#181818" points="370,633.7894,366,639.7894,370,645.7894,374,639.7894,370,633.7894" style="stroke:#181818;stroke-width:1.0;"/><text fill="#000000" font-family="sans-serif" font-size="13" lengthAdjust="spacing" textLength="214" x="371" y="678.1045">scopes:access_key &lt;-&gt; access_key</text><text fill="#000000" font-family="sans-serif" font-size="13" lengthAdjust="spacing" textLength="7" x="362.5734" y="655.4668">1</text><text fill="#000000" font-family="sans-serif" font-size="13" lengthAdjust="spacing" textLength="5" x="364.6484" y="700.8577">*</text></g><!--MD5=[36fd59f8ea61e80b0a0d4b47a2b7e382]
link Lock to Profile--><g id="link_Lock_Profile"><path codeLine="61" d="M239.1,437.7494 C247.89,453.9694 258.4,471.1094 270,485.6094 C278.24,495.8994 287.76,505.9694 297.6,515.4094 " fill="none" id="Lock-Profile" style="stroke:#181818;stroke-width:1.0;"/><text fill="#000000" font-family="sans-serif" font-size="13" lengthAdjust="spacing" textLength="209" x="271" y="482.1045">profile_access_key &lt;-&gt; access_key</text><text fill="#000000" font-family="sans-serif" font-size="13" lengthAdjust="spacing" textLength="7" x="234.9763" y="459.4219">1</text><text fill="#000000" font-family="sans-serif" font-size="13" lengthAdjust="spacing" textLength="7" x="281.3497" y="504.7093">1</text></g><!--MD5=[eb2fd02ef806d9d9c9853813e8e4cea9]
reverse link Scope to Secret--><g id="link_Scope_Secret"><path codeLine="62" d="M370,826.1394 C370,847.6394 370,871.0994 370,890.3794 " fill="none" id="Scope-backto-Secret" style="stroke:#181818;stroke-width:1.0;"/><polygon fill="#181818" points="370,813.0594,366,819.0594,370,825.0594,374,819.0594,370,813.0594" style="stroke:#181818;stroke-width:1.0;"/><text fill="#000000" font-family="sans-serif" font-size="13" lengthAdjust="spacing" textLength="215" x="371" y="857.1045">secrets:access_key &lt;-&gt; access_key</text><text fill="#000000" font-family="sans-serif" font-size="13" lengthAdjust="spacing" textLength="7" x="362.5734" y="833.7709">1</text><text fill="#000000" font-family="sans-serif" font-size="13" lengthAdjust="spacing" textLength="5" x="364.5859" y="879.649">*</text></g><!--MD5=[6f18696c39a40110cc6470b699d55645]
@startuml
title Data Structures

struct Vault {

}


struct Locker {
    keys: Map<access_key, Lock>
}
note right of Locker::keys
    Accesskey is the profile 
    access key provided by the user
end note

struct CipherKey<T> {
    nonce: byte[],
    T: Target
}

struct Lock {
    access_key: string
    is_active: bool
    profile_key: CipherKey<Profile>
    last_access: DateTime
}

struct Profile {
    access_key: string
    name: string    
    scopes: Map<access_key, CipherKey<Scope>>
    is_admin: bool
}
note right of Profile::is_admin
When true signals as the administrative profile
end note

struct Scope {
    access_key: string
    name: string 
    secrets: Map<access_key, CipherKey<Secret>>
}
note right of Scope::secrets 
    The string mapping will match
    the accesskey on every Secret
end note

struct Secret {
    access_key: string
    data: string
}

note right of Secret::data 
    JSON representation of an object
end note

Vault "1" *- - "*" Profile
Vault *- - Locker
Locker "1" *- - "*" Lock
Profile "1" *- - "*" Scope : scopes:access_key <-> access_key
Lock "1" - - "1" Profile : profile_access_key <-> access_key
Scope "1" *- - "*" Secret : secrets:access_key <-> access_key
@enduml

PlantUML version 1.2022.7(Mon Aug 22 18:01:30 WEST 2022)
(GPL source distribution)
Java Runtime: OpenJDK Runtime Environment
JVM: OpenJDK 64-Bit Server VM
Default Encoding: UTF-8
Language: en
Country: US
--></g></svg>